<?xml version="1.0" encoding="iso-8859-1"?>
<!-- Generator: Adobe Illustrator 19.0.0, SVG Export Plug-In . SVG Version: 6.00 Build 0)  -->
<svg xmlns="http://www.w3.org/2000/svg" xmlns:xlink="http://www.w3.org/1999/xlink" version="1.1" id="Capa_1" x="0px" y="0px" viewBox="0 0 470 470" style="enable-background:new 0 0 470 470;" xml:space="preserve" width="512px" height="512px">
<g>
	<path d="M458.417,205.948C350.316,89.532,240.748,2.484,239.653,1.618c-2.727-2.157-6.58-2.157-9.307,0   c-1.095,0.866-110.663,87.914-218.764,204.331c-1.72,1.853-2.392,4.447-1.785,6.902c0.606,2.454,2.408,4.438,4.793,5.277   l27.239,9.579c1.611,0.566,3.365,0.566,4.977,0l24.75-8.704l24.75,8.704c1.611,0.566,3.365,0.566,4.977,0l24.749-8.704   l19.739,6.942v47.654H79.056v-32.546c0-4.142-3.357-7.5-7.5-7.5s-7.5,3.358-7.5,7.5v32.982c-2.911,1.031-5,3.8-5,7.064   s2.089,6.033,5,7.064v46.339c-2.911,1.031-5,3.8-5,7.064s2.089,6.033,5,7.064v46.339c-2.911,1.03-5,3.8-5,7.064   s2.089,6.034,5,7.064V462.5c0,4.142,3.357,7.5,7.5,7.5h326.872c4.143,0,7.5-3.358,7.5-7.5v-53.398   c2.919-1.026,5.015-3.8,5.015-7.069s-2.096-6.043-5.015-7.069v-46.329c2.919-1.026,5.015-3.8,5.015-7.069s-2.096-6.043-5.015-7.069   v-46.329c2.919-1.026,5.015-3.8,5.015-7.069s-2.096-6.043-5.015-7.069v-32.977c0-4.142-3.357-7.5-7.5-7.5s-7.5,3.358-7.5,7.5   v32.546h-66.727v-47.654l19.741-6.942l24.755,8.704c0.806,0.283,1.646,0.425,2.488,0.425s1.683-0.142,2.488-0.425l24.754-8.704   l24.759,8.704c1.609,0.566,3.365,0.566,4.975,0l27.246-9.579c2.386-0.838,4.188-2.822,4.794-5.277   C460.808,210.396,460.138,207.801,458.417,205.948z M324.202,349.065h66.727v45.467h-66.727V349.065z M309.202,455H160.771V225.944   l19.738-6.942l24.752,8.704c1.611,0.566,3.367,0.566,4.977,0l24.746-8.704l24.75,8.704c1.611,0.566,3.365,0.566,4.977,0   l24.749-8.704l19.742,6.942V455z M145.771,394.532H79.056v-45.467h66.715V394.532z M145.771,288.598v45.467H79.056v-45.467H145.771   z M79.056,409.532h66.715V455H79.056V409.532z M324.202,455v-45.467h66.727V455H324.202z M390.929,288.598v45.467h-66.727v-45.467   H390.929z M425.675,212.681l-24.759-8.705c-0.805-0.283-1.646-0.424-2.487-0.424c-0.842,0-1.683,0.142-2.488,0.425l-24.754,8.704   l-24.756-8.704c-1.609-0.566-3.364-0.566-4.976,0l-24.753,8.704l-24.754-8.704c-1.611-0.566-3.367-0.566-4.977,0l-24.749,8.704   l-24.75-8.704c-1.611-0.566-3.367-0.566-4.977,0l-24.746,8.704l-24.752-8.704c-1.611-0.566-3.365-0.566-4.977,0l-24.75,8.704   l-24.751-8.704c-1.611-0.566-3.365-0.566-4.977,0l-24.749,8.704l-24.75-8.704c-1.611-0.566-3.365-0.566-4.977,0l-24.75,8.704   l-13.921-4.896C122.487,109.86,213.673,34.429,235,17.127c21.327,17.302,112.512,92.732,204.603,190.658L425.675,212.681z" fill="#933EC5"/>
	<path d="M304,114.497c-4.411,0-8,3.589-8,8s3.589,8,8,8s8-3.589,8-8S308.411,114.497,304,114.497z" fill="#933EC5"/>
	<path d="M177,164.497c-4.411,0-8,3.589-8,8s3.589,8,8,8s8-3.589,8-8S181.411,164.497,177,164.497z" fill="#933EC5"/>
	<path d="M157,134.497c-4.411,0-8,3.589-8,8s3.589,8,8,8s8-3.589,8-8S161.411,134.497,157,134.497z" fill="#933EC5"/>
	<path d="M183.271,425c-4.143,0-7.5,3.358-7.5,7.5s3.357,7.5,7.5,7.5h103.431c4.143,0,7.5-3.358,7.5-7.5s-3.357-7.5-7.5-7.5H183.271   z" fill="#933EC5"/>
</g>
<g>
</g>
<g>
</g>
<g>
</g>
<g>
</g>
<g>
</g>
<g>
</g>
<g>
</g>
<g>
</g>
<g>
</g>
<g>
</g>
<g>
</g>
<g>
</g>
<g>
</g>
<g>
</g>
<g>
</g>
</svg>
